<?xml version="1.0" encoding="UTF-8"?>
<svg version="1.1" xmlns="http://www.w3.org/2000/svg" width="500" height="500">
<path d="M0 0 C1.04881348 -0.01764404 2.09762695 -0.03528809 3.17822266 -0.0534668 C12.84906559 -0.04511809 22.38079346 1.51313141 30.375 7.3125 C31.1175 7.84488281 31.86 8.37726563 32.625 8.92578125 C40.60718512 15.26689212 44.05946429 23.30921858 45.375 33.3125 C47.31987018 56.71470835 36.06433111 79.12047516 21.375 96.6875 C11.19223099 108.48910657 -0.02621771 120.1040877 -12.625 129.3125 C-13.58664063 130.0446875 -14.54828125 130.776875 -15.5390625 131.53125 C-21.79403431 136.2818615 -28.1545417 140.86048113 -34.625 145.3125 C-38.77733048 143.80256164 -40.23613934 141.28859258 -42.4375 137.5625 C-43.06269531 136.53640625 -43.68789062 135.5103125 -44.33203125 134.453125 C-45.86344617 130.73331354 -45.78327206 129.12976184 -44.625 125.3125 C-43.20703125 122.5234375 -43.20703125 122.5234375 -41.4375 119.6875 C-38.41344383 114.6968797 -35.71922492 109.64641485 -33.1796875 104.39453125 C-31.5439431 101.15181183 -29.79500847 97.99126342 -28.02148438 94.82250977 C-25.44849818 90.19788196 -22.95095424 85.53216129 -20.4375 80.875 C-10.41462001 62.34556937 -10.41462001 62.34556937 -5.7421875 54.140625 C-4.40166105 51.77333724 -3.250502 49.47723222 -2.1328125 46.984375 C0.08378992 42.28885034 0.08378992 42.28885034 2.375 40.3125 C6.82554131 39.50039642 10.907391 39.715935 15.375 40.3125 C16.99595856 43.9293383 17.69748003 46.99880202 17.97265625 50.9453125 C18.05193359 51.99847656 18.13121094 53.05164063 18.21289062 54.13671875 C18.28701172 55.22597656 18.36113281 56.31523437 18.4375 57.4375 C18.59173655 59.60700909 18.74914335 61.7762958 18.91015625 63.9453125 C19.00889038 65.38221436 19.00889038 65.38221436 19.10961914 66.84814453 C19.30079629 69.44461501 19.30079629 69.44461501 20.375 72.3125 C30.3368957 61.74685305 34.90129242 49.65341327 34.62109375 35.36328125 C34.06022986 28.41034955 30.62824554 22.85903089 25.375 18.3125 C22.78560569 16.92133522 20.21245173 16.05451144 17.375 15.3125 C16.570625 15.085625 15.76625 14.85875 14.9375 14.625 C-9.05566515 11.69900425 -31.96241415 24.4435504 -51.25 37.375 C-54.88993843 39.46459428 -56.52136489 39.93696621 -60.625 39.3125 C-61.51316406 38.97734375 -62.40132812 38.6421875 -63.31640625 38.296875 C-67.09300039 37.17326021 -70.54024365 37.05076655 -74.4375 37.125 C-75.489375 37.13466797 -75.489375 37.13466797 -76.5625 37.14453125 C-81.64639339 37.21970897 -86.59553956 37.59400565 -91.625 38.3125 C-91.01871251 34.75379467 -90.67024051 34.34981299 -87.66015625 31.8671875 C-86.34590071 30.95936261 -85.02079796 30.06711935 -83.6875 29.1875 C-82.97239258 28.70885498 -82.25728516 28.23020996 -81.52050781 27.73706055 C-64.51731865 16.53376617 -45.73374077 6.47185073 -25.625 2.3125 C-24.74457031 2.11011719 -23.86414063 1.90773437 -22.95703125 1.69921875 C-15.33568857 0.21924864 -7.7453964 0.0743767 0 0 Z " fill="#61116A" transform="translate(179.625,150.6875)"/>
<path d="M0 0 C7.83831262 5.43299351 12.31101807 10.57586349 14.0703125 20.13671875 C15.8154689 32.80875534 14.59427316 44.06076983 7.5078125 55.0625 C4.57543148 58.88409841 1.14638047 62.09868477 -3.1796875 64.26171875 C-0.26693445 72.47038645 4.73560985 79.81878683 9.22509766 87.23071289 C12.5827643 92.80059581 15.77307744 98.45686538 18.90136719 104.15844727 C20.37189883 106.81498881 21.66137335 109.1027796 23.8203125 111.26171875 C24.0078125 113.82421875 24.0078125 113.82421875 23.8203125 116.26171875 C22.03958508 118.04244617 19.54387373 117.51787169 17.1328125 117.57421875 C15.58013672 117.63029297 15.58013672 117.63029297 13.99609375 117.6875 C7.76507533 116.85209901 3.4218106 112.2023351 -1.1796875 108.19921875 C-6.37284735 103.74126691 -11.6775261 99.46139755 -17.0769043 95.2565918 C-21.65913814 91.68466465 -26.15898727 88.02093661 -30.64453125 84.328125 C-35.41482866 80.43985484 -40.30583878 76.70614381 -45.1796875 72.94921875 C-47.1796875 71.26171875 -47.1796875 71.26171875 -48.1796875 69.26171875 C-48.24919291 67.72147879 -48.26421107 66.17836887 -48.2421875 64.63671875 C-48.23316406 63.81945312 -48.22414063 63.0021875 -48.21484375 62.16015625 C-48.20324219 61.53367187 -48.19164063 60.9071875 -48.1796875 60.26171875 C-46.76429687 59.76865234 -46.76429687 59.76865234 -45.3203125 59.265625 C-31.18408898 54.12114256 -19.08636577 46.31996017 -11.8046875 32.6875 C-9.46754665 27.38835773 -8.41135701 23.02419741 -9.1796875 17.26171875 C-10.92416709 13.7056642 -12.52192372 11.75504158 -15.6796875 9.38671875 C-25.111331 6.35511905 -33.02056722 8.47173795 -41.953125 12.16796875 C-45.2493979 13.28534939 -47.72812428 13.47027242 -51.1796875 13.26171875 C-50.61836361 9.82730282 -49.69111542 8.41849496 -46.9296875 6.32421875 C-34.95856386 -2.22038761 -13.70741918 -7.66002837 0 0 Z " fill="#98012E" transform="translate(121.1796875,192.73828125)"/>
<path d="M0 0 C1.28003906 -0.01417969 2.56007812 -0.02835938 3.87890625 -0.04296875 C8.06679634 0.22825575 10.93863008 1.08832872 14.3125 3.5625 C15.4375 5.1875 15.4375 5.1875 15.23828125 7.12890625 C14.21104312 9.76965988 13.17545534 10.31983317 10.75 11.75 C-9.36991633 24.47241936 -33.44772183 44.21224466 -40.1640625 67.9375 C-41.48483179 75.39596189 -41.05606891 81.47984769 -37.5625 88.1875 C-37.2325 89.1775 -36.9025 90.1675 -36.5625 91.1875 C-34.76317421 92.25466704 -34.76317421 92.25466704 -32.5625 93.1875 C-31.82515625 93.66832031 -31.0878125 94.14914062 -30.328125 94.64453125 C-17.6541228 101.7154788 -1.91586165 99.69682162 11.72729492 97.25537109 C23.18496627 95.22897501 23.18496627 95.22897501 28.375 97.4375 C29.055625 98.015 29.73625 98.5925 30.4375 99.1875 C30.4375 100.5075 30.4375 101.8275 30.4375 103.1875 C15.84413485 109.01594767 3.20278879 111.36595982 -12.5 111.375 C-13.61568359 111.38724609 -14.73136719 111.39949219 -15.88085938 111.41210938 C-29.72174224 111.4364343 -41.43550704 108.81436009 -51.80859375 99.1328125 C-59.83297549 90.23271872 -61.07519333 79.78992856 -60.8671875 68.2109375 C-59.5374702 45.60574348 -46.40697209 25.37212902 -30.06298828 10.46337891 C-21.09554444 2.83827941 -11.60393893 0.05854661 0 0 Z " fill="#61116A" transform="translate(89.5625,204.8125)"/>
<path d="M0 0 C0.125 6.625 0.125 6.625 -1 10 C-0.37351562 10.10957031 0.25296875 10.21914062 0.8984375 10.33203125 C1.71570313 10.49058594 2.53296875 10.64914063 3.375 10.8125 C4.18710937 10.96332031 4.99921875 11.11414063 5.8359375 11.26953125 C8 12 8 12 10 15 C10.38499891 16.65549531 10.72793135 18.3222433 11 20 C11.53625 19.071875 12.0725 18.14375 12.625 17.1875 C15.29745671 13.60078178 16.79085151 12.42952213 21 11 C25.89911658 10.28756114 29.08821476 10.51154362 33.5 12.875 C36.17976171 15.15279745 36.8703339 15.89969051 37.2734375 19.3203125 C37.49411289 25.41434833 36.91011474 29.35566299 33.484375 34.44140625 C31.0222733 37.02661303 28.91593646 37.89489254 25.37890625 38.30078125 C21.2619325 38.31791152 17.79576653 38.27056062 13.875 36.9375 C11.21126126 34.18496997 11.21134953 31.73384175 11 28 C10.34 28 9.68 28 9 28 C8.79375 28.7425 8.5875 29.485 8.375 30.25 C6.51097505 33.97804991 4.67467733 35.03142286 1 37 C-2.12520895 37.59294164 -5.19960863 37.69429138 -8.375 37.75 C-9.20644531 37.77964844 -10.03789062 37.80929688 -10.89453125 37.83984375 C-12.92917827 37.91000399 -14.96459091 37.95732895 -17 38 C-17 35.69 -17 33.38 -17 31 C-17.763125 31.969375 -18.52625 32.93875 -19.3125 33.9375 C-21.26748815 36.42086332 -21.85650159 36.9521672 -25 38 C-29.63077438 38.40813605 -33.70152375 38.56808336 -38 36.6875 C-40.43361482 34.6341375 -41.86813124 32.97959647 -42.30078125 29.765625 C-42.32737927 24.05591734 -42.04196345 19.90639266 -39 15 C-34.29048794 11.25161285 -30.37293238 10.29631785 -24.37109375 10.54296875 C-20.38278194 11.31172078 -18.7186915 13.00943934 -16 16 C-15.29947137 17.31585784 -14.62469505 18.64649406 -14 20 C-13.89453857 19.42967041 -13.78907715 18.85934082 -13.68041992 18.27172852 C-13.19666619 15.69914559 -12.69239026 13.13101444 -12.1875 10.5625 C-12.02185547 9.66466797 -11.85621094 8.76683594 -11.68554688 7.84179688 C-11.51474609 6.98779297 -11.34394531 6.13378906 -11.16796875 5.25390625 C-10.94016724 4.06776733 -10.94016724 4.06776733 -10.70776367 2.85766602 C-10.47420166 2.24463623 -10.24063965 1.63160645 -10 1 C-6.52674819 -0.1577506 -3.63932552 -0.06866652 0 0 Z M-29 18 C-30.90401138 19.90401138 -31.93520439 21.33425686 -32.19921875 24.046875 C-32.1886578 26.03233273 -32.09915043 28.0169914 -32 30 C-30.68 30 -29.36 30 -28 30 C-25.02586069 26.38854512 -24.67980263 23.5894956 -25 19 C-26.32 18.67 -27.64 18.34 -29 18 Z M23 18 C20.40618771 21.89071844 20.36812192 24.36166385 20 29 C20.33 29.66 20.66 30.32 21 31 C22.93109581 31.04289755 22.93109581 31.04289755 25 30 C26.96837815 26.47049435 28.11990624 24.12711866 27.6875 20.0625 C27.3471875 19.0415625 27.3471875 19.0415625 27 18 C25.68 18 24.36 18 23 18 Z M-2 18 C-2.99 18.495 -2.99 18.495 -4 19 C-4.69093896 21.57951874 -4.69093896 21.57951874 -5.125 24.5625 C-5.29257812 25.57441406 -5.46015625 26.58632812 -5.6328125 27.62890625 C-5.75398438 28.41136719 -5.87515625 29.19382813 -6 30 C-2.96867715 29.42260517 -2.20746921 29.25754798 -0.1875 26.75 C1.18028533 23.58249712 1.16005642 22.21246394 0 19 C-0.66 18.67 -1.32 18.34 -2 18 Z M-16 24 C-15 28 -15 28 -15 28 Z " fill="#98012E" transform="translate(315,191)"/>
<path d="M0 0 C-0.33 2.64 -0.66 5.28 -1 8 C0.32 8 1.64 8 3 8 C3.495 9.485 3.495 9.485 4 11 C4.598125 10.525625 5.19625 10.05125 5.8125 9.5625 C10.20523483 6.42483227 14.79876277 6.48810319 20 7 C22.89728868 8.2328888 24.39683427 9.2245012 26.3125 11.6875 C27.98833428 17.32439714 27.36956173 22.88200296 25.09375 28.234375 C23.10612074 31.44297652 20.50075082 32.95499976 17 34 C11.95027326 34.7670471 8.3798933 34.64974762 3.71484375 32.453125 C1 30 1 30 0.4140625 26.328125 C0.45369207 24.9675098 0.52491907 23.60750803 0.625 22.25 C0.66560547 21.20392578 0.66560547 21.20392578 0.70703125 20.13671875 C0.77745217 18.42314295 0.88507087 16.71116698 1 15 C-0.32 15 -1.64 15 -3 15 C-3.66 18.63 -4.32 22.26 -5 26 C-3.68 26 -2.36 26 -1 26 C-0.875 28.875 -0.875 28.875 -1 32 C-3.41486943 34.41486943 -4.12707789 34.2961925 -7.4375 34.3125 C-8.61119141 34.33763672 -8.61119141 34.33763672 -9.80859375 34.36328125 C-12.53029788 33.91208966 -13.39709571 33.22174709 -15 31 C-15.4888148 25.2319853 -14.58264578 20.53926023 -13 15 C-13.99 15.33 -14.98 15.66 -16 16 C-16.20496094 17.05960938 -16.40992188 18.11921875 -16.62109375 19.2109375 C-16.89307666 20.59898822 -17.16522044 21.98700744 -17.4375 23.375 C-17.57220703 24.07367188 -17.70691406 24.77234375 -17.84570312 25.4921875 C-18.88671875 30.7734375 -18.88671875 30.7734375 -20 33 C-36.55769231 35.62820513 -36.55769231 35.62820513 -42 32 C-43.25437808 23.64977726 -41.53426577 15.91958054 -39 8 C-35.7 8 -32.4 8 -29 8 C-29.67581523 14.08233706 -30.73638028 20.01314152 -32 26 C-27.95313292 22.68892694 -27.18823063 19.81644538 -26.25 14.75 C-26.00765625 13.48671875 -25.7653125 12.2234375 -25.515625 10.921875 C-25.34546875 9.95765625 -25.1753125 8.9934375 -25 8 C-23.86111328 8.01740234 -23.86111328 8.01740234 -22.69921875 8.03515625 C-21.70535156 8.04417969 -20.71148437 8.05320313 -19.6875 8.0625 C-18.70136719 8.07410156 -17.71523438 8.08570313 -16.69921875 8.09765625 C-13.90036151 8.12329862 -13.90036151 8.12329862 -11 7 C-10.938125 6.21625 -10.87625 5.4325 -10.8125 4.625 C-10 2 -10 2 -7.75 0.6875 C-5.03756762 0.0093919 -2.78200967 -0.15897198 0 0 Z M14 14 C10.85210726 17.42162254 10.33913201 20.4217178 10 25 C10.33 25.66 10.66 26.32 11 27 C14.16115776 25.63016497 14.9927092 25.0109362 17 22 C17.07905064 19.66800612 17.08798769 17.33167378 17 15 C16.01 14.67 15.02 14.34 14 14 Z " fill="#98012E" transform="translate(312,236)"/>
<path d="M0 0 C1.44565065 9.84743205 2.56291845 19.72967757 3.625 29.625 C3.76010986 30.83889404 3.89521973 32.05278809 4.03442383 33.3034668 C4.8682206 41.23338351 5.1647945 49.02827418 5 57 C-5.64021739 58.0173913 -5.64021739 58.0173913 -8.62890625 55.78125 C-10.00480335 53.59515565 -10.98132881 51.37689945 -12 49 C-12.98037086 47.01015932 -13.98594142 45.03400853 -14.99121094 43.05664062 C-16.02400964 41.01363863 -17.03075015 38.95941571 -18.03515625 36.90234375 C-19.33553528 34.26353222 -20.72290113 31.70783396 -22.20703125 29.16796875 C-24.89816844 24.41304008 -24.89816844 24.41304008 -24 21 C-21.4375 18.6875 -21.4375 18.6875 -19.78125 17.44921875 C-17.06564623 15.23981306 -14.93404656 12.58204464 -12.66796875 9.92578125 C-10.5613415 7.49353948 -8.30630012 5.24223623 -6 3 C-5.46375 2.401875 -4.9275 1.80375 -4.375 1.1875 C-3 0 -3 0 0 0 Z " fill="#61116A" transform="translate(202,253)"/>
<path d="M0 0 C-0.33 2.64 -0.66 5.28 -1 8 C0.32 8 1.64 8 3 8 C2.67 10.31 2.34 12.62 2 15 C0.35 15 -1.3 15 -3 15 C-3.144375 16.258125 -3.28875 17.51625 -3.4375 18.8125 C-3.73748686 21.42667123 -4.15813297 23.47439892 -5 26 C-3.68 26 -2.36 26 -1 26 C-0.95758277 28.33294775 -0.95907063 30.66702567 -1 33 C-2.66030882 34.66030882 -4.59753597 34.28918251 -6.875 34.375 C-11.66479131 34.30647652 -11.66479131 34.30647652 -14.1875 32 C-15.23876676 28.11839967 -14.76117911 24.86618698 -14 21 C-13.814375 19.845 -13.62875 18.69 -13.4375 17.5 C-13.293125 16.675 -13.14875 15.85 -13 15 C-13.66 15 -14.32 15 -15 15 C-15.23074219 16.20398438 -15.46148437 17.40796875 -15.69921875 18.6484375 C-16.02750199 20.22419707 -16.35699208 21.79970555 -16.6875 23.375 C-16.91083008 24.56609375 -16.91083008 24.56609375 -17.13867188 25.78125 C-18.39313799 31.58623045 -18.39313799 31.58623045 -21.234375 33.5234375 C-24.39550846 34.06815259 -27.35275211 34.26487716 -30.5625 34.25 C-32.23505859 34.25773437 -32.23505859 34.25773437 -33.94140625 34.265625 C-36.8964013 34.00899708 -38.54949082 33.61847583 -41 32 C-43.98230965 27.45552815 -43.02699828 22.0935802 -42 17 C-40.43251564 13.19423012 -38.36548524 11.38046517 -35 9 C-32.24332541 8.08110847 -30.70387521 7.89187298 -27.875 7.9375 C-27.08609375 7.94523438 -26.2971875 7.95296875 -25.484375 7.9609375 C-23.828125 7.98697917 -22.171875 8.01302083 -20.515625 8.0390625 C-19.72671875 8.04679688 -18.9378125 8.05453125 -18.125 8.0625 C-17.40570313 8.07410156 -16.68640625 8.08570313 -15.9453125 8.09765625 C-13.78158482 8.07623121 -13.78158482 8.07623121 -11 7 C-10.71125 6.195625 -10.4225 5.39125 -10.125 4.5625 C-9 2 -9 2 -6.625 0.6875 C-4 0 -4 0 0 0 Z M-30.125 16.625 C-32.34914783 19.44225392 -32.67895459 21.46850054 -33 25 C-31.515 25.99 -31.515 25.99 -30 27 C-27.2289312 24.65408148 -26.47940716 22.85223799 -25.8125 19.3125 C-25.65394531 18.50425781 -25.49539063 17.69601563 -25.33203125 16.86328125 C-25.22246094 16.24839844 -25.11289062 15.63351563 -25 15 C-28.04867389 14.69627495 -28.04867389 14.69627495 -30.125 16.625 Z " fill="#98012E" transform="translate(422,236)"/>
<path d="M0 0 C0.77085937 -0.01417969 1.54171875 -0.02835938 2.3359375 -0.04296875 C4.8827759 0.21345355 6.46451509 0.83124846 8.625 2.1875 C8.955 2.8475 9.285 3.5075 9.625 4.1875 C10.24375 3.5275 10.8625 2.8675 11.5 2.1875 C15.8023726 -0.56601846 19.62965386 -0.51103621 24.625 0.1875 C26.93359375 1.2109375 26.93359375 1.2109375 28.625 2.1875 C28.295 4.4975 27.965 6.8075 27.625 9.1875 C24.95833333 8.52083333 22.29166667 7.85416667 19.625 7.1875 C20.0375 7.6 20.45 8.0125 20.875 8.4375 C21.74125 9.30375 21.74125 9.30375 22.625 10.1875 C23.346875 10.744375 24.06875 11.30125 24.8125 11.875 C27.10569487 14.80080035 27.1996141 16.64643176 27.0234375 20.28515625 C26.41604423 23.18516139 24.96000208 24.47058671 22.625 26.1875 C20.06580818 27.46709591 18.17015972 27.35566536 15.3125 27.375 C14.36761719 27.38917969 13.42273438 27.40335938 12.44921875 27.41796875 C9.48093118 27.17574335 7.31632835 26.42776607 4.625 25.1875 C3.965 25.8475 3.305 26.5075 2.625 27.1875 C-1.90831765 27.80531497 -6.11479004 27.68633311 -10.375 26 C-13.95875347 22.75222342 -14.31015462 20.00455175 -14.6875 15.25 C-14.56749212 11.26723842 -13.59424002 8.55462279 -11.375 5.1875 C-7.55678374 1.74179265 -5.12036433 0.04252794 0 0 Z M7.625 6.1875 C7.625 7.1775 7.625 8.1675 7.625 9.1875 C4.985 8.5275 2.345 7.8675 -0.375 7.1875 C-3.49188908 10.56573289 -3.49188908 10.56573289 -4.75 14.875 C-4.57563253 17.37673519 -4.57563253 17.37673519 -2.375 19.1875 C-0.3818433 19.21125926 -0.3818433 19.21125926 1.75 18.8125 C3.02875 18.60625 4.3075 18.4 5.625 18.1875 C5.955 18.8475 6.285 19.5075 6.625 20.1875 C6.625 19.1975 6.625 18.2075 6.625 17.1875 C7.511875 17.703125 8.39875 18.21875 9.3125 18.75 C12.82523331 20.2743937 14.07206507 20.33697895 17.625 19.1875 C17.0475 18.775 16.47 18.3625 15.875 17.9375 C9.875 13.27083333 9.875 13.27083333 8.875 8.9375 C8.75125 7.57625 8.75125 7.57625 8.625 6.1875 C8.295 6.1875 7.965 6.1875 7.625 6.1875 Z " fill="#98012E" transform="translate(396.375,201.8125)"/>
<path d="M0 0 C1.20785156 0.00644531 2.41570312 0.01289063 3.66015625 0.01953125 C6.30772653 0.15522317 8.40289518 0.5494586 10.9375 1.1875 C11.5975 0.8575 12.2575 0.5275 12.9375 0.1875 C16.44110855 -0.07202656 19.1016151 -0.15542714 22.375 1.1875 C24.28660646 3.63435626 24.48215444 5.44766 24.34375 8.515625 C23.43055169 14.52166007 21.63607054 20.36382958 19.9375 26.1875 C16.9675 26.1875 13.9975 26.1875 10.9375 26.1875 C10.71925223 20.1856863 11.4318096 14.99516296 12.9375 9.1875 C12.2775 9.1875 11.6175 9.1875 10.9375 9.1875 C9.6175 14.7975 8.2975 20.4075 6.9375 26.1875 C0.00390625 27.06640625 0.00390625 27.06640625 -2.0625 27.1875 C-2.3925 26.8575 -2.7225 26.5275 -3.0625 26.1875 C-2.88545551 20.08627465 -1.50087984 14.09463274 -0.0625 8.1875 C-1.0525 8.5175 -2.0425 8.8475 -3.0625 9.1875 C-3.94367927 12.06680485 -4.64374222 14.81307029 -5.25 17.75 C-5.42724609 18.55630859 -5.60449219 19.36261719 -5.78710938 20.19335938 C-6.22399601 22.1888686 -6.64476673 24.18789356 -7.0625 26.1875 C-10.16023244 27.02812397 -12.84582751 27.27685201 -16.0625 27.1875 C-17.45094664 21.64539657 -16.28912663 17.44146239 -14.9375 12 C-14.73640625 11.08541016 -14.5353125 10.17082031 -14.328125 9.22851562 C-12.71783947 2.65641655 -12.71783947 2.65641655 -9.82421875 0.5859375 C-6.50712567 0.10737527 -3.35339048 -0.03945165 0 0 Z " fill="#98012E" transform="translate(355.0625,242.8125)"/>
<path d="M0 0 C0.86818359 -0.02900391 1.73636719 -0.05800781 2.63085938 -0.08789062 C9.00094489 -0.15144482 9.00094489 -0.15144482 12.265625 2.0546875 C14.60586709 5.7707862 14.31544052 9.06822732 13.6875 13.3125 C12.4375 16.3125 12.4375 16.3125 10.6875 18.3125 C8.578125 18.9375 8.578125 18.9375 6.6875 19.3125 C6.97625 19.98796875 7.265 20.6634375 7.5625 21.359375 C7.93375 22.25140625 8.305 23.1434375 8.6875 24.0625 C9.05875 24.94421875 9.43 25.8259375 9.8125 26.734375 C10.6875 29.3125 10.6875 29.3125 10.6875 33.3125 C5.7375 33.8075 5.7375 33.8075 0.6875 34.3125 C-0.06119792 32.03385417 -0.80989583 29.75520833 -1.55859375 27.4765625 C-2.26429729 25.30218201 -2.26429729 25.30218201 -3.3125 23.3125 C-3.51746094 24.02277344 -3.72242188 24.73304688 -3.93359375 25.46484375 C-4.20300781 26.38394531 -4.47242188 27.30304688 -4.75 28.25 C-5.01683594 29.16652344 -5.28367188 30.08304688 -5.55859375 31.02734375 C-6.3125 33.3125 -6.3125 33.3125 -7.3125 34.3125 C-10.31253445 34.45427857 -13.31007235 34.35478771 -16.3125 34.3125 C-15.63846587 27.02067619 -14.32952586 19.97286206 -12.8125 12.8125 C-12.58691406 11.71679688 -12.36132812 10.62109375 -12.12890625 9.4921875 C-10.15108848 0.05951813 -9.42364901 0.10355658 0 0 Z M-0.3125 7.3125 C-0.9725 9.6225 -1.6325 11.9325 -2.3125 14.3125 C0.19715614 13.60910434 0.19715614 13.60910434 2.6875 12.3125 C3.57443303 10.27144361 3.57443303 10.27144361 3.6875 8.3125 C2.3675 7.9825 1.0475 7.6525 -0.3125 7.3125 Z " fill="#98012E" transform="translate(260.3125,194.6875)"/>
<path d="M0 0 C1.71703125 -0.01160156 1.71703125 -0.01160156 3.46875 -0.0234375 C6.5 0.375 6.5 0.375 8.375 1.6875 C10.33667103 4.63000655 9.97082451 6.96152229 9.5 10.375 C7 13.3125 7 13.3125 4.5 15.375 C4.83 16.035 5.16 16.695 5.5 17.375 C5.933125 16.715 6.36625 16.055 6.8125 15.375 C7.369375 14.715 7.92625 14.055 8.5 13.375 C9.49 13.375 10.48 13.375 11.5 13.375 C13.25547734 16.0598477 13.50627277 17.29502215 13.25 20.5625 C13.0025 21.490625 12.755 22.41875 12.5 23.375 C11.84 23.705 11.18 24.035 10.5 24.375 C10.83 27.345 11.16 30.315 11.5 33.375 C7.77109745 33.4914862 4.04266486 33.56234576 0.3125 33.625 C-1.27014648 33.67527344 -1.27014648 33.67527344 -2.88476562 33.7265625 C-10.6711308 33.82481316 -10.6711308 33.82481316 -14.703125 31.63671875 C-17.24961184 28.43146683 -17.1507739 26.51604505 -16.9296875 22.5625 C-16.29541561 19.33347947 -14.86384378 17.603767 -12.5 15.375 C-11.51 14.715 -10.52 14.055 -9.5 13.375 C-9.28785727 10.7983497 -9.50535348 8.3617705 -9.6875 5.78515625 C-9.5 3.375 -9.5 3.375 -8.40625 1.58203125 C-5.59697447 -0.19679281 -3.29483368 -0.02226239 0 0 Z M-0.5 6.375 C-0.17 7.365 0.16 8.355 0.5 9.375 C0.83 8.385 1.16 7.395 1.5 6.375 C0.84 6.375 0.18 6.375 -0.5 6.375 Z M-5.5 21.375 C-6.49 22.86 -6.49 22.86 -7.5 24.375 C-6.18 24.705 -4.86 25.035 -3.5 25.375 C-4.16 24.055 -4.82 22.735 -5.5 21.375 Z " fill="#98012E" transform="translate(451.5,195.625)"/>
<path d="M0 0 C1.4540625 0.0309375 1.4540625 0.0309375 2.9375 0.0625 C2.6075 2.0425 2.2775 4.0225 1.9375 6.0625 C4.9075 6.3925 7.8775 6.7225 10.9375 7.0625 C12.23870196 11.39983986 13.23267987 15.57958998 13.9375 20.0625 C14.35902344 19.20785156 14.78054688 18.35320312 15.21484375 17.47265625 C15.76269531 16.36792969 16.31054688 15.26320313 16.875 14.125 C17.42027344 13.02285156 17.96554687 11.92070312 18.52734375 10.78515625 C19.9375 8.0625 19.9375 8.0625 20.9375 7.0625 C23.27047433 7.02157063 25.60455225 7.02008277 27.9375 7.0625 C27.27576403 11.97186554 25.15079901 15.27763737 22.50805664 19.39135742 C20.30194282 22.84822683 18.20473893 26.33153013 16.20703125 29.9140625 C15.73765137 30.73559814 15.26827148 31.55713379 14.78466797 32.40356445 C13.85613325 34.03147526 12.94697604 35.67061633 12.05908203 37.32104492 C10.80893928 39.47381026 9.69977458 41.30255109 7.9375 43.0625 C4.09765625 43.57421875 4.09765625 43.57421875 0.9375 43.0625 C2.5512931 37.68318966 2.5512931 37.68318966 4.03125 35.3046875 C7.41043095 29.84776692 6.905885 26.06178928 5.515625 19.89453125 C4.96402928 17.19245762 4.83705074 14.8097872 4.9375 12.0625 C2.43008147 12.57157943 2.43008147 12.57157943 -0.0625 14.0625 C-1.32217896 17.13840309 -1.32217896 17.13840309 -1.875 20.6875 C-2.10832031 21.87601562 -2.34164063 23.06453125 -2.58203125 24.2890625 C-2.74058594 25.20429688 -2.89914062 26.11953125 -3.0625 27.0625 C-1.4125 26.7325 0.2375 26.4025 1.9375 26.0625 C1.6075 28.0425 1.2775 30.0225 0.9375 32.0625 C-0.52042884 32.11649736 -1.97892712 32.15529177 -3.4375 32.1875 C-4.24960937 32.21070313 -5.06171875 32.23390625 -5.8984375 32.2578125 C-8.0625 32.0625 -8.0625 32.0625 -10.0625 30.0625 C-10.18530804 23.89139583 -9.00538985 17.89116955 -7.0625 12.0625 C-8.0525 12.0625 -9.0425 12.0625 -10.0625 12.0625 C-9.7325 10.4125 -9.4025 8.7625 -9.0625 7.0625 C-8.0725 6.7325 -7.0825 6.4025 -6.0625 6.0625 C-4.90728498 3.59119082 -4.90728498 3.59119082 -4.0625 1.0625 C-3.0625 0.0625 -3.0625 0.0625 0 0 Z " fill="#98012E" transform="translate(350.0625,277.9375)"/>
<path d="M0 0 C0 2.31 0 4.62 0 7 C0.99 7.33 1.98 7.66 3 8 C2.67 9.98 2.34 11.96 2 14 C0.68 14.33 -0.64 14.66 -2 15 C-3.485 20.445 -3.485 20.445 -5 26 C-3.35 26 -1.7 26 0 26 C1.65 20.06 3.3 14.12 5 8 C8.3 7.67 11.6 7.34 15 7 C14.67334928 9.66764757 14.34060924 12.33412047 14 15 C13.85981445 16.09973145 13.85981445 16.09973145 13.71679688 17.22167969 C13.41997508 19.44391176 13.08827246 21.65873213 12.75 23.875 C12.65332031 24.63296875 12.55664062 25.3909375 12.45703125 26.171875 C12.109375 28.3671875 12.109375 28.3671875 11 32 C7.64164618 34.06007647 4.88210759 34.20432145 1 34 C-0.79262452 34 -2.58726535 34.04346536 -4.375 34.17578125 C-5.24125 34.22089844 -6.1075 34.26601562 -7 34.3125 C-7.86625 34.37050781 -8.7325 34.42851562 -9.625 34.48828125 C-12 34 -12 34 -13.86328125 31.9375 C-15.33876399 28.12456866 -14.89822996 25.6900319 -14.1875 21.6875 C-13.97480469 20.43324219 -13.76210938 19.17898437 -13.54296875 17.88671875 C-13.36378906 16.93410156 -13.18460937 15.98148438 -13 15 C-13.66 14.67 -14.32 14.34 -15 14 C-14.67 12.02 -14.34 10.04 -14 8 C-13.01 7.67 -12.02 7.34 -11 7 C-10.566875 5.7934375 -10.566875 5.7934375 -10.125 4.5625 C-9 2 -9 2 -6.625 0.6875 C-4 0 -4 0 0 0 Z " fill="#98012E" transform="translate(368,195)"/>
<path d="M0 0 C1.91831905 0.09637488 3.83614764 0.2125031 5.75 0.375 C6.17915269 4.59233827 6.60634911 8.80986874 7.03173828 13.02758789 C7.17670883 14.4622126 7.32221267 15.89678352 7.46826172 17.33129883 C7.67816334 19.39390356 7.88614287 21.45669446 8.09375 23.51953125 C8.21943359 24.76065674 8.34511719 26.00178223 8.47460938 27.28051758 C8.75 30.375 8.75 30.375 8.75 33.375 C7.10492782 33.56906478 5.45890406 33.75507935 3.8125 33.9375 C2.43771484 34.09412109 2.43771484 34.09412109 1.03515625 34.25390625 C0.28105469 34.29386719 -0.47304688 34.33382812 -1.25 34.375 C-2.25 33.375 -2.25 33.375 -2.34765625 31.52734375 C-2.31510417 29.4765625 -2.28255208 27.42578125 -2.25 25.375 C-5.61852515 25.3184891 -5.61852515 25.3184891 -9.25 26.375 C-10.53043645 27.95154336 -10.53043645 27.95154336 -11.4375 29.875 C-13.25 33.375 -13.25 33.375 -15.125 34.375 C-17.91582423 34.375 -20.52032141 33.93334335 -23.25 33.375 C-21.32953027 26.82675192 -18.70307051 21.09706792 -15.3125 15.1875 C-14.88259766 14.41986328 -14.45269531 13.65222656 -14.00976562 12.86132812 C-13.16624165 11.36756109 -12.30428868 9.88401881 -11.42236328 8.41259766 C-10.08555971 6.1728221 -10.08555971 6.1728221 -8.68359375 2.82421875 C-5.59208214 -0.28714205 -4.28931869 0.01414165 0 0 Z M-3.25 11.375 C-5.53692024 14.61264755 -5.53692024 14.61264755 -6.25 18.375 C-4.93 18.375 -3.61 18.375 -2.25 18.375 C-2.25 16.065 -2.25 13.755 -2.25 11.375 C-2.58 11.375 -2.91 11.375 -3.25 11.375 Z " fill="#98012E" transform="translate(259.25,235.625)"/>
<path d="M0 0 C1.20785156 -0.03738281 2.41570312 -0.07476562 3.66015625 -0.11328125 C6.9375 0.3125 6.9375 0.3125 9.375 2.015625 C12.22799737 6.20953113 10.81916563 10.54905653 9.9375 15.3125 C9.05871854 19.01985927 8.05739978 22.67106486 6.9375 26.3125 C3.9675 26.6425 0.9975 26.9725 -2.0625 27.3125 C-2.29518915 21.02989294 -1.46704548 15.43230533 -0.0625 9.3125 C-1.0525 8.9825 -2.0425 8.6525 -3.0625 8.3125 C-3.23265625 9.51648438 -3.4028125 10.72046875 -3.578125 11.9609375 C-3.82197813 13.53660387 -4.06682134 15.11211724 -4.3125 16.6875 C-4.42207031 17.4815625 -4.53164063 18.275625 -4.64453125 19.09375 C-5.58396038 24.92809932 -5.58396038 24.92809932 -7.96875 26.84375 C-10.70788537 27.45698926 -13.26670678 27.43958151 -16.0625 27.3125 C-17.03059661 23.55487273 -17.01021426 20.98268109 -16.06640625 17.23046875 C-15.83759766 16.29912109 -15.60878906 15.36777344 -15.37304688 14.40820312 C-15.12619141 13.44849609 -14.87933594 12.48878906 -14.625 11.5 C-14.26051758 10.03143555 -14.26051758 10.03143555 -13.88867188 8.53320312 C-13.28925956 6.12380069 -12.68028234 3.71724554 -12.0625 1.3125 C-7.99436018 0.44953493 -4.16619653 0.08466068 0 0 Z " fill="#98012E" transform="translate(479.0625,242.6875)"/>
<path d="M0 0 C2.60785195 2.21667416 3.3906249 2.95552782 3.703125 6.296875 C3.80087445 11.67309462 3.65748194 15.55209513 0.5 20.125 C-4.47623222 24.61574615 -7.46048826 25.43058458 -14.01953125 25.3359375 C-17.30584931 25.05647108 -19.08493121 24.38912699 -21.5 22.125 C-24.0708422 17.21702852 -23.91168299 12.37099616 -22.5 7.125 C-20.7140226 3.48408853 -18.67457999 0.87542611 -15.25 -1.3125 C-9.57588867 -2.47311368 -5.19854003 -2.78493216 0 0 Z M-9.5 5.125 C-11.54219706 6.81679328 -12.41793306 7.76227666 -13.01171875 10.38671875 C-13.06972656 11.18722656 -13.12773437 11.98773438 -13.1875 12.8125 C-13.25324219 13.62074219 -13.31898438 14.42898438 -13.38671875 15.26171875 C-13.42410156 15.87660156 -13.46148437 16.49148438 -13.5 17.125 C-12.51 17.455 -11.52 17.785 -10.5 18.125 C-8.45780294 16.43320672 -7.58206694 15.48772334 -6.98828125 12.86328125 C-6.93027344 12.06277344 -6.87226563 11.26226562 -6.8125 10.4375 C-6.74675781 9.62925781 -6.68101562 8.82101563 -6.61328125 7.98828125 C-6.57589844 7.37339844 -6.53851563 6.75851563 -6.5 6.125 C-7.49 5.795 -8.48 5.465 -9.5 5.125 Z " fill="#98012E" transform="translate(459.5,244.875)"/>
<path d="M0 0 C0.83265381 0.00523682 1.66530762 0.01047363 2.52319336 0.01586914 C3.42231445 0.0190918 4.32143555 0.02231445 5.24780273 0.02563477 C6.66609375 0.03820312 6.66609375 0.03820312 8.11303711 0.05102539 C9.06243164 0.05553711 10.01182617 0.06004883 10.98999023 0.06469727 C13.34356776 0.07652429 15.69702188 0.09300514 18.05053711 0.11352539 C17.17553711 4.98852539 17.17553711 4.98852539 16.05053711 6.11352539 C14.03459129 6.34780317 12.01206311 6.52688663 9.98803711 6.67602539 C8.88331055 6.75981445 7.77858398 6.84360352 6.64038086 6.92993164 C5.3584082 7.02081055 5.3584082 7.02081055 4.05053711 7.11352539 C3.72053711 9.09352539 3.39053711 11.07352539 3.05053711 13.11352539 C6.68053711 13.11352539 10.31053711 13.11352539 14.05053711 13.11352539 C14.05053711 15.09352539 14.05053711 17.07352539 14.05053711 19.11352539 C10.09053711 19.44352539 6.13053711 19.77352539 2.05053711 20.11352539 C1.06053711 22.75352539 0.07053711 25.39352539 -0.94946289 28.11352539 C3.34053711 28.11352539 7.63053711 28.11352539 12.05053711 28.11352539 C12.05053711 29.76352539 12.05053711 31.41352539 12.05053711 33.11352539 C11.05053711 34.11352539 11.05053711 34.11352539 9.10107422 34.22705078 C7.85209351 34.21919556 7.85209351 34.21919556 6.57788086 34.21118164 C5.67875977 34.20795898 4.77963867 34.20473633 3.85327148 34.20141602 C2.43498047 34.18884766 2.43498047 34.18884766 0.98803711 34.17602539 C0.03864258 34.17151367 -0.91075195 34.16700195 -1.88891602 34.16235352 C-4.24249354 34.15052649 -6.59594766 34.13404564 -8.94946289 34.11352539 C-9.43552177 27.06050083 -7.64529359 20.5633809 -6.01196289 13.73852539 C-5.73416992 12.5384082 -5.45637695 11.33829102 -5.17016602 10.10180664 C-2.83509611 0.16509952 -2.83509611 0.16509952 0 0 Z " fill="#98012E" transform="translate(300.949462890625,152.886474609375)"/>
<path d="M0 0 C6.6 0 13.2 0 20 0 C20 1.65 20 3.3 20 5 C19 6 19 6 16.05859375 6.09765625 C14.26615234 6.08025391 14.26615234 6.08025391 12.4375 6.0625 C10.64119141 6.04896484 10.64119141 6.04896484 8.80859375 6.03515625 C7.88175781 6.02355469 6.95492188 6.01195312 6 6 C5.67 8.64 5.34 11.28 5 14 C10.445 13.505 10.445 13.505 16 13 C17 17 17 17 16 19 C13.27734375 19.4140625 13.27734375 19.4140625 9.9375 19.625 C8.83277344 19.69976562 7.72804688 19.77453125 6.58984375 19.8515625 C5.73519531 19.90054688 4.88054687 19.94953125 4 20 C3.34 22.64 2.68 25.28 2 28 C6.29 28 10.58 28 15 28 C14.67 29.98 14.34 31.96 14 34 C7.07 34 0.14 34 -7 34 C-5.62880101 26.22773656 -4.07545393 18.51891765 -2.375 10.8125 C-2.03082031 9.24145508 -2.03082031 9.24145508 -1.6796875 7.63867188 C-1.12152749 5.09206684 -0.56101444 2.54597773 0 0 Z " fill="#98012E" transform="translate(274,153)"/>
<path d="M0 0 C6.6 0 13.2 0 20 0 C20 1.65 20 3.3 20 5 C19 6 19 6 16.05859375 6.09765625 C14.26615234 6.08025391 14.26615234 6.08025391 12.4375 6.0625 C10.64119141 6.04896484 10.64119141 6.04896484 8.80859375 6.03515625 C7.88175781 6.02355469 6.95492188 6.01195312 6 6 C5.67 8.31 5.34 10.62 5 13 C8.63 13 12.26 13 16 13 C16 14.98 16 16.96 16 19 C11.71 19 7.42 19 3 19 C2.67 21.97 2.34 24.94 2 28 C5.96 28 9.92 28 14 28 C14 29.65 14 31.3 14 33 C13 34 13 34 11.05053711 34.11352539 C9.8015564 34.10567017 9.8015564 34.10567017 8.52734375 34.09765625 C7.62822266 34.09443359 6.72910156 34.09121094 5.80273438 34.08789062 C4.38444336 34.07532227 4.38444336 34.07532227 2.9375 34.0625 C1.98810547 34.05798828 1.03871094 34.05347656 0.06054688 34.04882812 C-2.29303065 34.0370011 -4.64648477 34.02052025 -7 34 C-6.36624893 26.43509803 -4.76765871 19.2963516 -2.9375 11.9375 C-2.65583984 10.78572266 -2.37417969 9.63394531 -2.08398438 8.44726562 C-1.39434779 5.63027551 -0.69787139 2.81496136 0 0 Z " fill="#98012E" transform="translate(323,153)"/>
<path d="M0 0 C1.051875 -0.01417969 2.10375 -0.02835937 3.1875 -0.04296875 C6 0.1875 6 0.1875 9 2.1875 C9.1875 4.8125 9.1875 4.8125 9 7.1875 C5.25 8.3125 5.25 8.3125 3 7.1875 C1.62657169 7.1185528 0.24997898 7.10282292 -1.125 7.125 C-2.40375 7.145625 -3.6825 7.16625 -5 7.1875 C-5 8.8375 -5 10.4875 -5 12.1875 C-4.278125 12.455625 -3.55625 12.72375 -2.8125 13 C4.07284768 15.9071468 4.07284768 15.9071468 6.3125 19 C7.71797112 23.47195356 7.48073614 26.26163781 5.3125 30.4375 C2.246382 34.08369438 0.34193304 34.97494832 -4.3671875 35.40234375 C-9.41314321 35.58950828 -12.89714663 35.4697827 -17 32.1875 C-16.67 30.2075 -16.34 28.2275 -16 26.1875 C-11.125 27.0625 -11.125 27.0625 -10 28.1875 C-5.85723125 28.43483137 -5.85723125 28.43483137 -2 27.1875 C-2 25.5375 -2 23.8875 -2 22.1875 C-2.62648437 21.87296875 -3.25296875 21.5584375 -3.8984375 21.234375 C-4.71570313 20.80640625 -5.53296875 20.3784375 -6.375 19.9375 C-7.18710938 19.51984375 -7.99921875 19.1021875 -8.8359375 18.671875 C-11.28303139 16.99336294 -12.07418923 15.98562082 -13 13.1875 C-13.08203125 10.93359375 -13.08203125 10.93359375 -12.8125 8.625 C-12.73644531 7.86058594 -12.66039062 7.09617187 -12.58203125 6.30859375 C-11.88619346 3.77275537 -11.05370586 2.80007572 -9 1.1875 C-5.79226388 0.11825463 -3.37015182 0.02065044 0 0 Z " fill="#98012E" transform="translate(250,275.8125)"/>
<path d="M0 0 C2.1875 1.625 2.1875 1.625 4.1875 3.625 C4.95870986 9.75461606 4.84066626 15.46017874 1.1875 20.625 C-2.51834188 24.05290374 -5.10520575 25.49853376 -10.1875 25.875 C-14.04308259 25.60909775 -15.81325164 25.00675605 -18.8125 22.625 C-20.77481692 16.73804924 -20.49410338 10.24359757 -17.8125 4.625 C-12.85426203 -1.09604381 -7.26608872 -3.55231004 0 0 Z M-9.9375 6.5 C-13.18883593 10.18484739 -13.07301437 12.76206506 -12.8125 17.625 C-12.1525 18.285 -11.4925 18.945 -10.8125 19.625 C-8.42243734 19.39370361 -7.10894293 18.86274136 -5.234375 17.359375 C-3.47470019 15.21295847 -3.26656308 13.80493716 -3 11.0625 C-2.91105469 10.27746094 -2.82210938 9.49242187 -2.73046875 8.68359375 C-2.58846958 6.39676944 -2.58846958 6.39676944 -4.8125 4.625 C-7.90990541 4.29418918 -7.90990541 4.29418918 -9.9375 6.5 Z " fill="#98012E" transform="translate(278.8125,285.375)"/>
<path d="M0 0 C4.56944444 2.13888889 4.56944444 2.13888889 6 5 C6.09472912 6.51845202 6.1298841 8.04110384 6.125 9.5625 C6.12886719 10.77099609 6.12886719 10.77099609 6.1328125 12.00390625 C6 14 6 14 5 15 C2.47403741 15.23653523 -0.03107207 15.42173692 -2.5625 15.5625 C-3.27341797 15.60568359 -3.98433594 15.64886719 -4.71679688 15.69335938 C-6.47761912 15.79971777 -8.2387832 15.90038846 -10 16 C-9.67 16.99 -9.34 17.98 -9 19 C-4.31034294 20.11658501 -1.46236469 19.80619523 3 18 C3 20.31 3 22.62 3 25 C-1.22514828 27.11257414 -5.34369237 27.76392547 -10 27 C-15.5 24 -15.5 24 -17 21 C-17.5099099 15.41606867 -17.73870063 10.55947912 -15.3125 5.4375 C-10.65255998 0.52567133 -6.67313386 -1.02456197 0 0 Z M-7.8125 7.4375 C-9.10084721 8.80560373 -9.10084721 8.80560373 -9 10 C-6.03 10 -3.06 10 0 10 C-0.33 8.68 -0.66 7.36 -1 6 C-4.69479456 5.66122453 -4.69479456 5.66122453 -7.8125 7.4375 Z " fill="#98012E" transform="translate(333,284)"/>
<path d="M0 0 C0.495 0.33 0.99 0.66 1.5 1 C1.17 2.98 0.84 4.96 0.5 7 C-0.716875 6.731875 -1.93375 6.46375 -3.1875 6.1875 C-6.81250591 5.73678879 -7.29170971 5.85680042 -10.5 8.0625 C-12.79566536 11.4342585 -13.12118682 13.00665613 -12.5 17 C-11.84 17.66 -11.18 18.32 -10.5 19 C-8.27871445 19.02308597 -8.27871445 19.02308597 -5.875 18.625 C-5.05773437 18.51414062 -4.24046875 18.40328125 -3.3984375 18.2890625 C-2.77195312 18.19367188 -2.14546875 18.09828125 -1.5 18 C-1.75 20.875 -1.75 20.875 -2.5 24 C-6.13649214 26.46446597 -9.10996904 26.21494694 -13.3046875 25.578125 C-17.12293245 24.57260854 -18.44733473 23.37696545 -20.5 20 C-21.41221553 15.05298501 -21.71496453 10.26585025 -19.28515625 5.734375 C-14.17778623 -0.45165078 -7.72982302 -3.09192921 0 0 Z " fill="#98012E" transform="translate(304.5,285)"/>
<path d="M0 0 C-0.64656856 8.89031769 -2.87022567 17.37193748 -5 26 C-8.40562852 26.77842938 -11.50765756 27.09978121 -15 27 C-14.56901343 18.03547936 -12.30110566 9.62647053 -10 1 C-6.58093768 0.27021695 -3.50129871 -0.10003711 0 0 Z " fill="#98012E" transform="translate(437,243)"/>
<path d="M0 0 C2.31 0 4.62 0 7 0 C6.68838417 7.35413352 5.36903396 14.17491932 3.45996094 21.25195312 C2.32057189 25.50709204 1.5422709 29.6392382 1 34 C-1.64 34 -4.28 34 -7 34 C-6.3880213 28.39124677 -5.4113374 23.03700964 -4.0625 17.5625 C-3.70402752 16.07561711 -3.3459511 14.58863867 -2.98828125 13.1015625 C-2.8176416 12.39676758 -2.64700195 11.69197266 -2.47119141 10.96582031 C-1.59764666 7.32137354 -0.79884946 3.66139336 0 0 Z " fill="#98012E" transform="translate(261,153)"/>
<path d="M0 0 C4.0743356 0.84881992 5.54405875 2.30225596 8 5.625 C8.71588388 9.44304737 8.29055839 11.09037255 6.4375 14.5 C4 16.625 4 16.625 0.5625 17.25 C-3.91145674 16.46509531 -5.36788535 15.29400829 -8 11.625 C-8.625 8.625 -8.625 8.625 -8 5.625 C-5.54405875 2.30225596 -4.0743356 0.84881992 0 0 Z M-4 5.625 C-4.6814823 7.51679203 -4.6814823 7.51679203 -5 9.625 C-4.34 10.285 -3.68 10.945 -3 11.625 C-3 9.645 -3 7.665 -3 5.625 C-3.33 5.625 -3.66 5.625 -4 5.625 Z M3 5.625 C3 7.275 3 8.925 3 10.625 C3.66 10.625 4.32 10.625 5 10.625 C4.67 8.975 4.34 7.325 4 5.625 C3.67 5.625 3.34 5.625 3 5.625 Z M0 11.625 C-0.33 12.285 -0.66 12.945 -1 13.625 C-0.01 13.295 0.98 12.965 2 12.625 C1.34 12.295 0.68 11.965 0 11.625 Z " fill="#61116A" transform="translate(216,294.375)"/>
<path d="M0 0 C2.31 0 4.62 0 7 0 C5.56790123 21.43209877 5.56790123 21.43209877 2 25 C0.00041636 25.04080783 -2.00045254 25.04254356 -4 25 C-5.11991797 21.63684208 -4.85748516 19.42994063 -4.00390625 16.015625 C-3.77509766 15.08105469 -3.54628906 14.14648438 -3.31054688 13.18359375 C-3.06369141 12.21550781 -2.81683594 11.24742187 -2.5625 10.25 C-2.19801758 8.77466797 -2.19801758 8.77466797 -1.82617188 7.26953125 C-1.22571669 4.84416327 -0.61673274 2.42127055 0 0 Z " fill="#98012E" transform="translate(308,285)"/>
<path d="M0 0 C0.125 3.375 0.125 3.375 0 7 C-2.39763185 9.39763185 -3.33273498 9.34280586 -6.625 9.625 C-7.44226563 9.69976562 -8.25953125 9.77453125 -9.1015625 9.8515625 C-9.72804688 9.90054688 -10.35453125 9.94953125 -11 10 C-10.67 7.36 -10.34 4.72 -10 2 C-3.375 0 -3.375 0 0 0 Z " fill="#98012E" transform="translate(439,232)"/>
<path d="M0 0 C0.125 3.375 0.125 3.375 0 7 C-3.00617269 10.00617269 -5.82381598 9.59585316 -10 10 C-11.13869156 7.2050298 -11.06846818 6.17318422 -9.9375 3.3125 C-8 1 -8 1 -4.9375 0.1875 C-3.29382535 0.0825846 -1.64701961 0 0 0 Z " fill="#98012E" transform="translate(385,191)"/>
<path d="M0 0 C0.94875 0.04125 1.8975 0.0825 2.875 0.125 C2 6 2 6 0.875 7.125 C-1.12458364 7.16580783 -3.12545254 7.16754356 -5.125 7.125 C-5.25 4.75 -5.25 4.75 -5.125 2.125 C-3.125 0.125 -3.125 0.125 0 0 Z " fill="#98012E" transform="translate(315.125,273.875)"/>
</svg>
